{"title":"Jabberwock 2011 R5 XviD AC3-WDR","uid":6906484,"size":1143154160,"categoryP":"video","categoryS":"movies","magnet":"?xt=urn:btih:b4af33e4bdb01f933eba30d95c9feed0b7be7fdb&amp;dn=Jabberwock+2011+R5+XviD+AC3-WDR&amp;tr=udp%3A%2F%2Ftracker.openbittorrent.com%3A80&amp;tr=udp%3A%2F%2Fopen.demonii.com%3A1337&amp;tr=udp%3A%2F%2Ftracker.coppersurfer.tk%3A6969&amp;tr=udp%3A%2F%2Fexodus.desync.com%3A6969","seeders":0,"leechers":1,"uploader":"HeroMaster","files":-1,"time":1324611780,"description":"Jabberwock 2011 R5 XviD AC3-WDR\n\n\nTitle:\n\n\nJabberwock (2011)\nGenres: Action | Adventure | Fantasy    \nYear: 2011\nCountry: USA | Canada\nLanguage: English\nSubtitles: No\nRuntime: 84  min\nDirector: Steven R. Monroe  \nWriters: Raul Inglis , Rafael Jordan\n\n\nCast:\n\n\nTahmoh Penikett ... Francis\nMichael Worth ... Alec\nKacey Barnfield ... Anabel\nRaffaello Degruttola ... Cid\nIan Virgo ... Michael\nSteven Waddington ... John\nHristo Mitzkov ... Stephen  \n\n\nPlot:\n\n\nAlec, a courageous but impetuous knight, returns to his home village having \nbeen summoned by his older brother to see their dying father.\n\n\nDetails:\n\n\nVideo\nID                                       : 0\nFormat                                   : MPEG-4 Visual\nFormat profile                           : Advanced Simple@L5\nFormat settings, BVOP                    : 2\nFormat settings, QPel                    : No\nFormat settings, GMC                     : No warppoints\nFormat settings, Matrix                  : Default (H.263)\nCodec ID                                 : XVID\nCodec ID/Hint                            : XviD\nDuration                                 : 1h 23mn\nBit rate                                 : 1 364 Kbps\nWidth                                    : 720 pixels\nHeight                                   : 404 pixels\nDisplay aspect ratio                     : 16:9\nFrame rate                               : 25.000 fps\nColor space                              : YUV\nChroma subsampling                       : 4:2:0\nBit depth                                : 8 bits\nScan type                                : Progressive\nCompression mode                         : Lossy\nBits/(Pixel*Frame)                       : 0.188\nStream size                              : 818 MiB (75%)\nWriting library                          : XviD 1.2.1 (UTC 2008-12-04)\n\nAudio\nID                                       : 1\nFormat                                   : AC-3\nFormat/Info                              : Audio Coding 3\nMode extension                           : CM (complete main)\nCodec ID                                 : 2000\nDuration                                 : 1h 23mn\nBit rate mode                            : Constant\nBit rate                                 : 448 Kbps\nChannel(s)                               : 6 channels\nChannel positions                        : Front: L C R, Side: L R, LFE\nSampling rate                            : 48.0 KHz\nBit depth                                : 16 bits\nCompression mode                         : Lossy\nDelay relative to video                  : 40ms\nStream size                              : 268 MiB (25%)\nAlignment                                : Split accross interleaves\nInterleave, duration                     : 500 ms (12.50 video frames)\nInterleave, preload duration             : 500 ms\n\n\nIMDB:\n\n &lt;a href=&quot;\nhttp://www.imdb.com/title/tt1734203/&quot; rel=&quot;nofollow&quot; target=&quot;_NEW&quot;&gt;\nhttp://www.imdb.com/title/tt1734203/&lt;/a&gt; \n\n\nPoster:\n\n &lt;a href=&quot;\nhttp://i.imgur.com/OIWmY.jpg&quot; rel=&quot;nofollow&quot; target=&quot;_NEW&quot;&gt;\nhttp://i.imgur.com/OIWmY.jpg&lt;/a&gt;\n\n\nScreenshots:\n\n &lt;a href=&quot;\nhttp://i.imgur.com/R5f7T.jpg&quot; rel=&quot;nofollow&quot; target=&quot;_NEW&quot;&gt;\nhttp://i.imgur.com/R5f7T.jpg&lt;/a&gt;\n\n\nENJOY!","torrent":{"xt":"urn:btih:b4af33e4bdb01f933eba30d95c9feed0b7be7fdb","amp;dn":"Jabberwock+2011+R5+XviD+AC3-WDR","amp;tr":["udp%3A%2F%2Ftracker.openbittorrent.com%3A80","udp%3A%2F%2Fopen.demonii.com%3A1337","udp%3A%2F%2Ftracker.coppersurfer.tk%3A6969","udp%3A%2F%2Fexodus.desync.com%3A6969"],"infoHash":"b4af33e4bdb01f933eba30d95c9feed0b7be7fdb","infoHashBuffer":{"type":"Buffer","data":[180,175,51,228,189,176,31,147,62,186,48,217,92,159,238,208,183,190,127,219]},"announce":[],"urlList":[]}}